<?xml version="1.0" encoding="UTF-8"?>
<svg id="Layer_1" xmlns="http://www.w3.org/2000/svg" version="1.1" viewBox="0 0 32 32">
  <!-- Generator: Adobe Illustrator 29.5.1, SVG Export Plug-In . SVG Version: 2.1.0 Build 141)  -->
  <defs>
    <style>
      .st0 {
        stroke: #fff;
        stroke-width: .8px;
      }

      .st0, .st1 {
        fill: none;
        stroke-linecap: round;
        stroke-linejoin: round;
      }

      .st2 {
        fill: #fff;
      }

      .st1 {
        stroke: #000;
        stroke-width: 1.1px;
      }
    </style>
  </defs>
  <g id="CrackedEgg">
    <path class="st2" d="M15.8,14l.9,3.5-2.9,1.5.7,4.2-3.6,2.8c3.3,1.4,7-.2,8.5-3.5,1.4-3.3-.2-7-3.5-8.5"/>
    <path class="st2" d="M9.3,25.2l4-2.3v-4.2c-.1,0,2.9-1,2.9-1l-.4-3.6c-3.7-2.3-9.6-2.3-11.4.9-1.8,3.2,1,8.1,4.9,10.4h0v-.2Z"/>
    <path class="st1" d="M15.8,14l.9,3.5-2.9,1.5.7,4.2-3.6,2.8c3.3,1.4,7-.2,8.5-3.5s-.2-7-3.5-8.5"/>
    <path class="st1" d="M9.3,25.2l4-2.3v-4.2c-.1,0,2.9-1,2.9-1l-.4-3.6c-3.7-2.3-9.6-2.3-11.4.9-1.8,3.2,1,8.1,4.9,10.4h0v-.2Z"/>
  </g>
  <g id="Hand">
    <g>
      <path d="M17.2,21.7c-.4,0-.6-.2-.9-.5-.5-.5-.5-1.1-.1-1.9s.9-.6,1.4-.8c.3,0,1.4,0,1.7-.2.4,0,0-.7-.3-1s-1-.9-1.7-1.3c-.5-.5-.6-.5-1-.7-.4-.4-.7-.5-1-.8-.3-.1-.8-.7-1.3-.9-.4-.4-1-1-1-1.6s.5-.9.9-1c.6,0,1.3.2,1.6.5.5.2,1,.7,1.7,1.3.8.7,2,1.6,2.2,1.8-.3-.3-5-4.3-5.2-4.6,0-.3-.2-.8,0-1.1.1-.3.5-.4.7-.7.3,0,.6-.1.9-.1.7.1,5.8,4.6,5.7,4.6-.2-.5-4.5-4.3-4.6-4.6v-.8c.1-.3.5-.6.8-.7,0,0,.9-.2,1.1,0,.4,0,5,4.1,5.3,4.4,0,0-2.4-2.3-2.5-2.8,0-.8.9-1.7,1.9-.8.5.5,2.6,2.5,3,2.8l.8.9c.3.3.8,1,1,1.4,0,.3.3,1,.4,1.6,0,0-.2,1.7.2,2.2.2.4.5.7.5.8l.7.7s-.5.5-.9.8c-.5.2-1.2,0-1.5-.2s-.6,0-.5.5.2,1.3-.2,1.7c-.5.6-1.7,1.3-2.4,2,0,0-.5-.8-1-.9l-1.7-.2s-4.2.5-4.7.4h.2Z"/>
      <path class="st0" d="M17.2,21.7c-.4,0-.6-.2-.9-.5-.5-.5-.5-1.1-.1-1.9s.9-.6,1.4-.8c.3,0,1.4,0,1.7-.2.4,0,0-.7-.3-1s-1-.9-1.7-1.3c-.5-.5-.6-.5-1-.7-.4-.4-.7-.5-1-.8-.3-.1-.8-.7-1.3-.9-.4-.4-1-1-1-1.6s.5-.9.9-1c.6,0,1.3.2,1.6.5.5.2,1,.7,1.7,1.3.8.7,2,1.6,2.2,1.8-.3-.3-5-4.3-5.2-4.6,0-.3-.2-.8,0-1.1.1-.3.5-.4.7-.7.3,0,.6-.1.9-.1.7.1,5.8,4.6,5.7,4.6-.2-.5-4.5-4.3-4.6-4.6v-.8c.1-.3.5-.6.8-.7,0,0,.9-.2,1.1,0,.4,0,5,4.1,5.3,4.4,0,0-2.4-2.3-2.5-2.8,0-.8.9-1.7,1.9-.8.5.5,2.6,2.5,3,2.8l.8.9c.3.3.8,1,1,1.4,0,.3.3,1,.4,1.6,0,0-.2,1.7.2,2.2.2.4.5.7.5.8l.7.7s-.5.5-.9.8c-.5.2-1.2,0-1.5-.2s-.6,0-.5.5.2,1.3-.2,1.7c-.5.6-1.7,1.3-2.4,2,0,0-.5-.8-1-.9l-1.7-.2s-4.2.5-4.7.4h.2Z"/>
    </g>
  </g>
</svg>