<?xml version="1.0" encoding="UTF-8"?>
<svg id="Layer_2" xmlns="http://www.w3.org/2000/svg" version="1.1" viewBox="0 0 1200 1200">
  <!-- Generator: Adobe Illustrator 29.5.1, SVG Export Plug-In . SVG Version: 2.1.0 Build 141)  -->
  <defs>
    <style>
      .st0 {
        fill: #1e2122;
      }

      .st1 {
        fill: #c4beb1;
      }

      .st2 {
        fill: #c41230;
      }

      .st3 {
        fill: #fbf2dd;
      }
    </style>
  </defs>
  <circle class="st2" cx="600" cy="600" r="475"/>
  <path class="st3" d="M889.8,527.3c-7.6-1.8-19.1-2-25.8-5.5-3.4-1.7-5.3-2.2-4.6-6.9l32.5,4.7c8.1-16.2,25.8-21.3,42.2-13.9,0-4.8,8.7-13.9,10.7-6.7,1.1,4-3.8,8.5-3.9,10.5,0,1.6,5.5,8.6,6.4,12.9,5.7,26.3-19.3,42.6-42.7,32.3-2.1.5-6.9,11.3-10.8,10.5-8-1.6,3.4-15.1,3.4-16,0-1.3-10.3-16.3-7.3-22h-.1Z"/>
  <path class="st3" d="M1036.5,476.8c.8,1.2,0,4-1.6,5.3s-42.1,9.8-46.6,10c-7.2.3-10.3-4.7-3-7.7,6.9-2.8,28.7-6.4,36.9-7.4,8.2-1,13-2.1,14.3-.2h0Z"/>
  <circle class="st3" cx="959" cy="428.3" r="11"/>
  <path class="st3" d="M936.5,573c5.4-1.3,23,19.8,24.5,24.4,1.9,5.6-2.1,7.7-7,5.4-1.4-.6-17.5-21.7-18.7-24.1s-1.6-5,1.2-5.7h0Z"/>
  <path class="st3" d="M968.8,545.7c4.2-1.3,27.4,3.6,31.9,5.8,7.3,3.4,3.7,8.1-3.1,7.8-3.3,0-22.1-4.2-25.3-5.4-3.8-1.5-9.3-6.3-3.5-8.2h0Z"/>
  <path class="st3" d="M903.7,496.6c-6.1,1.2-8.7-2.6-9.6-8-.3-1.5-1.7-3.4,1.2-4.2,7.3-1.9,9,6.6,8.4,12.2h0Z"/>
  <path class="st3" d="M973.9,528.7c1,6.7-13,5.5-13.7,2.3-1.2-5.6,10.8-3.7,13.7-2.3Z"/>
  <circle class="st3" cx="967" cy="495" r="4.4"/>
  <path class="st3" d="M412,412.7l-1.4,12.6c1.4,4.3,11.8,3.3,12.1,9.4l-2.5,3.8-15.2-6c-19.3,16.9-51.9,4.2-46.2-23.4,4-19.5,30.3-25.5,44.7-13.3,2.7,2.2,4.8,7.5,6.8,8.4,3.2,1.6,18.6-1.1,14.6,5.4l-13,3.1h.1Z"/>
  <circle class="st3" cx="410.4" cy="474" r="14.1"/>
  <path class="st3" d="M317.2,359.2c-4,3.8-34.5-11.1-39.7-14.5-3.5-2.2-6.9-3.1-6.1-8.4,16.6-1.1,28.2,12.8,43.3,17l2.5,5.9h0Z"/>
  <path class="st3" d="M306.6,450.8c-.2-2.4-.4-3.5,1.5-5.3,2.7-2.5,22.6-8.3,26.8-8.5,7.5-.3,9.6,3.3,2.2,6.9-4.3,2.1-27.8,9.5-30.5,6.9Z"/>
  <circle class="st3" cx="361.7" cy="288" r="8.8"/>
  <path class="st3" d="M344.1,359.2c4.9-1.4,8.3,3.7,11.3,6.8,1.9,2.1,9.9,11.3,6.2,13.7-6.7,4.4-17.1-11.9-19.7-17.1l2.2-3.5h0Z"/>
  <path class="st3" d="M351.9,446.5c2.8-.8,7,0,6.4,3.4-2.2,3.5-10,14-14.3,13.2-7.7-1.5,3.9-15.4,7.9-16.5h0Z"/>
  <path class="st3" d="M332.1,408.4c8.8-.8,17.6,6.3,4.3,7.4-14,1.1-15-6.4-4.3-7.4Z"/>
  <path class="st3" d="M415,369.9c0,3.5-1,7.1-3,9.9-9,12.6-13.8-12.6,3-9.9Z"/>
  <path class="st3" d="M467.1,1091c2.3,2.3-6.2,6.1-7.6,6.9-13.2,7.5-24.9,13.9-40.5,12.9-3.9-.3-32.9-4.4-32.8-6.8l42.2-27.9,38.7,14.9h0Z"/>
  <path class="st0" d="M894.2,642.7c-1-6.5-3.6-28.1-8.9-30.9h-4.7c-5.8,16.3-19.7,23.1-31.5,34.3l-30.6-37.8c-7,.3-20.6,19.2-25.4,17.9-3.1-.8-10.2-12.6-13.2-15.9-2.9-3.2-7.6-4.8-10-8.4-2.2-3.3-.5-5.5-2.2-8.3-3.1-5.2-13.3-9.5-16.9-15.3-.3-3.9.5-1.7,2.7-1.1,3.8,1.1,7,3.8,11.1,3.4,3.1-3.3-12.2-26.1-15.3-29.7-5.2-6-18.3-12.8-20.5-19.1-.6-1.8,4.1-13.3,2-20.4-1.8-6-9.8-4.5-11.6-5.9-1.1-.8-1-4.4-1.9-6.2-3.3-6-6.7-17.3-6-24.8.2-2.3,1.7-9.5,3.9-10,9.8,2,24.7,29.3,32.1,29,1.9,0,2.7-.8,3.6-2.4l-2.9-15.9c1.6-1.8,9.6,6.1,10.7,7.6l-7.6-15.3c2.2-2.3,12.9,12.2,7.6,15.3.6.8.7,3.9,2.3,6,3.7,4.6,9.6,11.1,16,10.8l.2-16.6c6.8-1.9,14.6-3.2,15.2,5.9,13.2-3.4,22.7-17.1,31.2-27.4l-.7,11.2,3.7,2.5c12.1-14.2,20.3-29.7,20.6-48.9,4.7-.5,7.7,9,12.3,5.4,3.4-2.6,4.5-26.1,6-31.4l10.8.6c3-9.3,1-18.9-.2-28.1.4-.5,10.4,5.6,12.2.7l-9-20.1c5.3-4.9,1.7-12.9-.9-18.8-2.6-5.7-2.4-12.6-3.8-18.2-3.3-12.8,4-27.3-2.2-39.8-39.3-2.8-72.4,8.2-103.1.7-3.4-2.9,0-9.9-2.2-13.1-1-1.4-4.4-1.4-6.1-3-1.5-1.4-2.4-5.2-4.6-7.7-3.4-3.8-11.3-6.4-11.6-9.9l15.4-32c-4.7-2-10.5,3.3-14.5,5.3-1.6-5.7,8.9-9.6,12.6-13.2,4.6-4.5.7-7-4.6-6.3-4.3.6-15.8,4.2-20.3,5.8-5.3,1.9-9,5.8-14.4,6.2l13-12.2c4.7-2.4,10.6-4.2,9.9-10.7-.7-.7-11.8,1.6-13.7,2.3-5.5,1.8-15.5,11.2-10.7-.8l-15.2,4.6,6.2-14.5-3.2-1.5c2.6-5.7,6.9-13.9,7.6-20,.7-6.2-6.1,2.5-7.6.8,5.2-17.6.6-36.2,4.6-53.4,1.1-4.8,8.7-19.3.7-20-3.5-.3-18.4,13.5-22.1,16.9-5.8,5.3-16.5,15.2-21.4,20.6-3.6,4-9.3,19.3-13,19.1l-.8-4.6-2.2,1.5-27.4,61.1-34.4,10.6c-1.7-4-4.4-24.3-8.5-24.4l-9.2,28.9-28.2-32-.8,4.6-12.3-13.6-6,2.9c-4.3-4.9-8.7-9.6-13.8-13.7-3.3-2.7-18.7-14.4-21.4-15.3-4.3-1.5-.2,5.8-4.5,4.6-3.5-3.6-28.1-24.7-31.3-21.4v10.7l-4.6-6.1c0,16.2,7,31.9,9.1,48.1l-4.6-2.3,7.6,27.5c-.5.8-5.3-4.2-4.6.8.3,2.1,13.6,24.8,10,23.6l-5.3-3c-1.7,2.2,7.5,14.5,9.4,17.3,2.1,3,9.7,11,10.4,12.5.8,1.9-.4,2.9-2.2,2.2l-8.4-4.6c-3.5,4.8,16.3,27.8,18.3,32.9,1.7,4.3-6.5.9-7.6,3,2.2,7.6,29.2,23.3,30.3,27.8-2.4,8.9-.5,18.1-1.4,27-.4,4.1-4.5,14.6-4.4,17,.5,6.9,11.1-7.8,13.7-5.4l-7.7,48.1,2.4,3.8c1.3,0,8.6-15.5,8.4-8.3-.4,16.2-9.8,35.9-10.8,51.9-.1,2.4-.3,2.6,2.3,2.3l8.4-10.7-3,18.9-12.4,1.7c-3.3,2.2-3.9,19.2-2.7,22.7,1.6,4.8,10.4,2.5,8.9,6.3l-21.4,15.3.9,3.8,12.9.7-28.2,31.3-.8,4.6,9.9-3c1.7,2.8-3.3,8.7-5.4,11.4-6.7,8.4-27.8,24.8-30.5,33.7-2.3,7.6,15.9-9.1,13.7-1.6-.6,2.2-12.7,19.4-14.4,20.8-6.4,4.9-18.1-10.7-24.2-9.1-4.4,1.1-30,34-31.6,41-4.6,3.4-7.9-15.9-11.5-16.8-6.1,0-1.8,8-5.3,9.2-3.6-2.4-20.1-54.7-24.1-52s-1.5,4.3-2.2,7.8c-2.5-16.7-23.5-34.7-27.6-35.6s-1,8.3-1,8.3c0,0-30.6-24.3-46.2-27.5-15.6-3.2-30.2,1.9-22.7,8.5,7.5,6.6,37.1,29.1,44.9,49.2l-4.5-2c-9.5,3,19.6,19.3,20.3,21.1,1,2-10-5.1-9.1.6s18.3,22.7,29.2,34.7c-6.6,2.6-10.2-7.9-16.8-6.9-4,4.2,14.6,21.7,16.8,25.9-2.4,2-10.7-12.1-14.6,3-1,3.9-2,11.8-2.2,16.1-9.1,130.8,52,314.9,183.3,367.3,52.1,20.8,116.5,24.6,171.1,13,13-2.8,30.9-10.3,42.7-11.5,11.4-7.8,24.6-12.2,36.5-19.2,127.6-75.5,165.1-258.4,143.4-395.1v.3ZM786.6,308.7c22-11.3,44.1-24.8,70.1-21,4.5,11.3,7.1,30.5-7.8,32.5l-1.8-24c-6.2-4.5-43.8,14.7-51.9,18.2.9,14.4,14,19,25.5,15-.4,9.3-12.4,8.9-19.2,6.8-8.9-2.8-15.8-18.8-14.9-27.5h0ZM781.4,411.6c4.8,3.3,9.8,6.6,15.3,8.4,14.8-2.8,20.1-18,24.4-31l3-.7c.2.2-.3,1.8,1.3,2.7,1.7,1,6.7-.6,6.5,3.9-10.8,4.7-11,16.2-20.7,23.6-3.6,2.8-10.5,6-15.9,4.9s-10.4-5.9-15.5-9.4c-1.6-1.1,0-3.7,1.5-2.6v.2ZM737.9,257.8c15-2.9,15.5,33-1.2,19.7-5.8-4.7-5.6-18.3,1.2-19.7ZM717.4,427.9c3.3-.8,3.4,1.9,4.9,3.5s13.2,16.7,11.9,17.9c-8.1,4.4-18.4-19.6-16.8-21.4h0ZM800,635.1c.9-3.4,13.4-12.8,17.2-14.7,3.9.8,20.5,31.4,26.9,34.3,6.5,3,12-5.6,13.7-3.8,1.8,1.9-16,25.2-18.4,28.2-2.1,2.5-12.5,16.5-15.2,14.6-2.7-14.8-10.6-27.4-16.3-41-1.3-3.1-1.1-7.3-2.3-9.9-1.6-3.4-6.9-3-5.6-7.7h0ZM717.9,515.1c3.6,1.2,3.1,9.6,2.2,12.5-2.4,7.8-26.8,6.5-33.9,8.6l-2.2-2.4-1.8-15.8c8.2,1.8,29.4-5,35.7-2.9h0ZM628.8,605.7c6.6,4.9,12.2,11.7,19.9,16.7,22.9,15,36.6,16.2,50.5,44.2,1.7,3.4,3.4,6.1,2.8,10.2-2.9.6-3.7-1.4-5.2-3.2-6.7-7.7-13.4-21.6-20.7-28.2-2.9-2.7-61.4-34.4-53.5-41.9,3.1-.7,4.1.7,6.2,2.2ZM624.2,577.5c6.5,3.5,5,14.2,13.7,15.3l-.7,3c-9.6-3.2-14.5-7.5-13-18.3ZM644.1,598.9h3l1.5,6.1h-2.3c-2.4-1.6-2.7-3.3-2.3-6.1h0ZM671.1,550.3c23.5-5.1,39.3,25.6,16.8,36.7-28.2,13.8-42.8-31-16.8-36.7ZM670,514.9h4.5c1.3.9,6.2,26.4.9,29-3.2,0-5.7-25.1-5.3-29h-.1ZM689.1,427.9c1.3,0,14.4,19.9,13,21.3-4.6.7-8.2-3.7-10.4-7.1-1-1.6-7.5-14.5-2.5-14.2h0ZM683,400.4c-5.3.2.3-18,5.3-18.3-.5,6-1.4,13.5-5.3,18.3ZM705.1,440.1c.7-.8,10,5.9,10.3,6.4.7,1.3.3,2.9.4,4.3-2.3,2.4-12.6-6.5-10.7-10.7h0ZM703.6,201.9c.7,5.9-2.6,11-7.6,13.7-.6-5.4,1-13.1,7.6-13.7ZM690.7,124c9.9,3.2-2,15.4,1.2,21,.3.5,2.7-.1,2.7,2.6,0,4.5-3.7,8.4-3.2,13.1l6.1-1.5-3,16.8,6.1-4.6c-1.6,11.2-9.4,20.3-4.6,32.1l-3.1-7.6-9.1,3v-19.8l-12.2,7.6,4.6-18.3-7.6,2.3c4.8-16.4,9.7-34.2,22.1-46.6h0ZM667.7,443.2c3.3,2.7,6.7,2,10,3-.2-.9-1.3-10.7,2.3-9.2,2,1.4,8.8,10.2,6.9,12.2-3.2-.5-5.8-2.1-9.2-3.1,1.2,5.2,18.3,12.9,11.4,19.8-2.4-.2-11.3-13.5-13-14.5-3.1-1.8-7.4.4-11.6-2.2-5.6-3.5-7.5-15.4-6.8-21.5,5.9,2.6,5.2,11.5,9.9,15.3v.2ZM654.8,369.8c-.9-4.9,2.4-10.3,7.6-10.7-2.7,2.7-2.7,11.3-7.6,10.7ZM641.5,284c10.6-7.9,24.3,16.4,14.4,23.5-10,7.1-25.8-15-14.4-23.5ZM637.8,430c-2,11-17.6-7.1-13.6-14.3,1.8-2.1,13.8,13.2,13.6,14.3ZM596.2,250.9c6.9-5.3,17.4-6.4,25-10.1l-9.2-3.8c4.5-3.3,20.3-.7,16.6,5.9-.9,1.6-33.6,15.3-34.9,13.9-.5-3.4,0-3.9,2.5-5.9h0ZM608.2,253.8l2.3,3.8-18.4,19.1,4.5-9.2-9.1-.8,20.6-13h.1ZM587.5,415.7v4.6c-1.9,2.1-9.4-6.2,0-4.6ZM567.7,400.4c9.6-1.1,5.5,17.6,9.1,24.4-7.1.7-10.3-23.2-9.1-24.4ZM566.2,391.2c.6,4-.6,7.6-4.6,9.2v-9.2h4.6ZM558.5,371.4l-1.8,23.4-4.3,2.5c-2-8.9-1.4-16.4,1.4-25.1l4.7-.9h0ZM552.4,360.7l-3.8,13.7c-4.5-2.1.7-17.1,3.8-13.7ZM499,248.4c-1.6-4.3,4.8,1.2,3-3-3-7-11.9-13.2-10.7-22.2l8.4,4.6c6.4,2-15.7-22.4-15.9-23.8l2.1-3.3c.9-.2,5.2,3.1,3.8-1.1-1.4-4.1-12.4-29.5-10.7-31.3l48.1,35.1c9.6,8.5,15,20.7,20.6,32.1l-13.7-7.6c-2.9,3.9,11.5,20.2,9.9,26-6.3-5.2-10.4-12.1-15.2-18.5-1.3-1.7,0-3.8-3.9-2.9-2.2,2.8,8.6,19.6,10.7,22.9l-13.7-6.1c.7,5.8,5.8,9.9,6.1,16,.3,5.3-8.2-2.3-6.1,3.1,1.8,4.5,11.3,10.1,8.4,16-5.8-1.8-28.8-29.4-31.3-35.9h.1ZM514.3,472.2c17.1,3.6,31.6,14,47.3,20.6,21.1,8.8,46.2,15.3,68.7,19.9,6.9,1.4,30.7,3.5,34.1,5.6,4.9,3,1.7,12.8,2.6,18.1-47.1-1.7-99.2-16.2-140.6-38.9-14.2-7.8-18.8-7.2-12.1-25.3h0ZM618.6,681.3l-.8,3.8-9.5-2.1.8-3.8,9.5,2.1ZM590.6,695.1c-3.7,3.6-9.3-8.2-10-10.6-.8-2.7-2.8-10.6,2.3-9.2l7.7,19.8ZM558.5,655.4l16.8,29.8c2.5,1.1.2,3.6-.8,3.8-9.1,1.3-19-25.9-16-33.6ZM561.6,684.4c-9.8.7-18.2-16.5-18.4-25.2,0-4.2,1.5-1.3,4.2-.3l14.2,25.5ZM399.9,648.8c1.8-3.2,23.9-32.8,25.7-33.9,4.8-3,11.4,8,16.8,8.5l-8.2,7.7c-4.3,5.3-17.8,29.4-20.8,31.2-4.8,3-11.5-5.6-14.6-8.5-1.2-2,.1-3.4,1.1-5ZM576.3,1058.4c-178.9-20.5-254.8-223.3-246.8-381.6,6.2,4.5,11.7,10.4,17.6,15.2,6.6,5.4,17.1,11.4,22.9,16.8,3.9,3.7,16.3,23.1,21.1,22.7l100.9-80.6,55.9,77.2,27-17.6,2.8,1.3c2.1,2.4,2.3,9.2,7.5,7.6l13-18.8,3.2-1,13,21.4.7-8.4c.4-1.6,2.1-1,3.1,0,3.1,3,10.4,23.8,15.5,30.3,5.3,6.7,28.7,17.5,34.9,11,7.3-7.7-2.4-18.6-.8-26.7,6.9,7.1,10.7,16.2,6.9,25.9,9.7,2.9,20,4.9,29.9,1.6,12.2-4.1,6.3-9,8.4-18.4l8.3,6.1c28.2-13.7,1.2-44.2-8.4-61.9,0-5.6,33-28.7,39.2-32.6l2,.5c14.4,14.1,27.2,30,41.2,44.4,4.3,4.4,20.6,22.2,25.3,22.1,4.7,0,24.8-25.4,28.8-30.7,11.5-15.1,20.7-31.7,31.4-47.2,1.8,17.9,5.3,36.1,6.2,54.2,9.1,187-96.6,391.6-310.6,367.1h-.1Z"/>
  <path class="st3" d="M547.8,235.5l-13.7-7.6c-2.9,3.9,11.5,20.2,9.9,26-6.3-5.2-10.4-12.1-15.2-18.5-1.3-1.7,0-3.8-3.9-2.9-2.2,2.8,8.6,19.5,10.7,22.9l-13.7-6.1c.7,5.8,5.8,9.9,6.2,16,.3,5.3-8.3-2.3-6.1,3.1,1.8,4.5,11.3,10.1,8.4,16.1-5.8-1.8-28.8-29.4-31.3-35.9-1.6-4.3,4.8,1.3,3-3-3-7-11.8-13.2-10.7-22.2l8.4,4.6c6.4,2.1-15.7-22.4-15.9-23.8l2.1-3.3c.8-.2,5.2,3.1,3.8-1.1-1.4-4.1-12.4-29.5-10.7-31.3l48.1,35.1c9.6,8.5,15,20.7,20.6,32.1v-.2Z"/>
  <path class="st2" d="M671.1,550.3c23.5-5.1,39.3,25.6,16.8,36.7-28.2,13.8-42.8-31-16.8-36.7Z"/>
  <path class="st3" d="M691.9,145c.3.6,2.7-.1,2.7,2.6,0,4.5-3.7,8.4-3.2,13.1l6.1-1.5-3,16.8,6.1-4.6c-1.6,11.2-9.3,20.3-4.6,32.1l-3-7.6-9.1,3v-19.8l-12.2,7.6,4.6-18.3-7.6,2.3c4.8-16.4,9.7-34.2,22.1-46.6,9.9,3.2-2,15.4,1.2,21h0Z"/>
  <path class="st3" d="M856.7,287.7c4.5,11.3,7.1,30.5-7.8,32.5l-1.8-24c-6.2-4.5-43.8,14.7-51.9,18.2.9,14.4,14,19,25.5,15-.4,9.3-12.4,8.9-19.2,6.8-8.8-2.7-15.8-18.8-14.9-27.5,22-11.3,44.1-24.8,70.1-21h0Z"/>
  <path class="st1" d="M442.5,623.4l-8.3,7.7c-4.3,5.3-17.8,29.4-20.8,31.2-4.8,3-11.5-5.6-14.6-8.5-1.2-2,.1-3.4,1.1-5,1.8-3.2,23.9-32.8,25.7-33.9,4.8-3,11.4,8,16.8,8.5h0Z"/>
  <path class="st3" d="M702.1,676.8c-2.9.6-3.7-1.4-5.2-3.2-6.7-7.7-13.4-21.6-20.7-28.2-2.9-2.7-61.4-34.4-53.5-41.9,3.1-.7,4.1.7,6.2,2.2,6.6,4.9,12.2,11.7,19.9,16.7,22.9,15,36.6,16.2,50.5,44.1,1.7,3.4,3.4,6.1,2.8,10.2h0Z"/>
  <path class="st3" d="M655.8,307.5c-10,7.1-25.8-15-14.4-23.5,10.6-7.9,24.3,16.4,14.4,23.5Z"/>
  <path class="st3" d="M831.9,395c-10.8,4.7-11,16.2-20.7,23.6-3.6,2.8-10.5,6-15.9,4.9s-10.4-5.9-15.5-9.4c-1.6-1.1,0-3.7,1.5-2.6,4.8,3.3,9.8,6.6,15.3,8.4,14.8-2.8,20.1-18,24.4-31l3-.7c.2.2-.3,1.8,1.3,2.7,1.7,1,6.7-.6,6.5,3.9v.2Z"/>
  <path class="st3" d="M677.6,446.2c-.2-.9-1.3-10.7,2.3-9.1,2,1.4,8.7,10.2,6.9,12.2-3.2-.4-5.8-2.1-9.2-3,1.3,5.3,18.3,12.9,11.5,19.8-2.4-.2-11.3-13.5-13-14.5-3.1-1.8-7.4.4-11.6-2.2-5.6-3.6-7.5-15.4-6.8-21.5,5.9,2.6,5.2,11.5,9.9,15.3,3.3,2.7,6.7,2,10,3h0Z"/>
  <path class="st3" d="M628.6,242.9c-.9,1.6-33.6,15.3-34.9,13.9-.5-3.4,0-3.9,2.5-5.9,6.9-5.3,17.4-6.4,25-10.1l-9.1-3.8c4.5-3.3,20.3-.7,16.6,5.9h0Z"/>
  <path class="st3" d="M737.9,257.8c15.1-2.9,15.5,33-1.2,19.6-5.8-4.6-5.6-18.3,1.2-19.6Z"/>
  <path class="st3" d="M558.5,655.4l16.8,29.8c2.6,1.1.2,3.7-.8,3.8-9.1,1.3-19-25.9-16-33.6Z"/>
  <polygon class="st3" points="592.1 276.7 596.7 267.5 587.6 266.8 608.2 253.8 610.5 257.6 592.1 276.7"/>
  <path class="st3" d="M547.4,658.9l14.2,25.5c-9.8.7-18.2-16.5-18.4-25.2,0-4.2,1.5-1.3,4.2-.3Z"/>
  <path class="st3" d="M558.5,371.4l-1.8,23.4-4.3,2.5c-2-8.9-1.4-16.4,1.4-25.1l4.7-.9h0Z"/>
  <path class="st3" d="M734.1,449.3c-8.1,4.4-18.4-19.6-16.8-21.4,3.3-.8,3.4,1.8,4.9,3.5s13.2,16.7,11.9,17.9h0Z"/>
  <path class="st3" d="M702.1,449.3c-4.6.7-8.2-3.7-10.4-7.1-1-1.6-7.5-14.5-2.5-14.2,1.3,0,14.4,19.9,13,21.3h0Z"/>
  <path class="st3" d="M624.2,415.7c1.8-2.1,13.8,13.2,13.6,14.3-2,11-17.6-7.1-13.6-14.3Z"/>
  <path class="st3" d="M576.9,424.8c-7.1.7-10.3-23.2-9.1-24.4,9.6-1.1,5.5,17.6,9.1,24.4Z"/>
  <path class="st3" d="M582.9,675.3l7.7,19.8c-3.7,3.6-9.3-8.2-10-10.6-.8-2.7-2.8-10.6,2.3-9.2Z"/>
  <path class="st3" d="M637.9,592.8l-.7,3c-9.6-3.2-14.5-7.5-13-18.3,6.5,3.5,5,14.2,13.7,15.3Z"/>
  <path class="st3" d="M688.3,382.1c-.5,6-1.4,13.5-5.3,18.3-5.3.3.3-18,5.3-18.3Z"/>
  <path class="st3" d="M703.6,201.9c.7,5.9-2.6,10.9-7.6,13.7-.6-5.4,1-13.1,7.6-13.7Z"/>
  <path class="st3" d="M715.5,446.5c.7,1.3.3,2.9.4,4.3-2.3,2.4-12.6-6.5-10.7-10.7.7-.8,10,5.9,10.3,6.4h0Z"/>
  <path class="st3" d="M758.6,482.9l-7.6-15.3c2.2-2.3,12.9,12.2,7.6,15.3Z"/>
  <path class="st3" d="M552.4,360.7l-3.8,13.7c-4.5-2.1.7-17.1,3.8-13.7Z"/>
  <path class="st3" d="M662.4,359.2c-2.7,2.7-2.7,11.3-7.6,10.7-.9-4.9,2.4-10.3,7.6-10.7Z"/>
  <path class="st3" d="M566.2,391.2c.6,4-.6,7.6-4.6,9.2v-9.2h4.6Z"/>
  <rect class="st3" x="611.9" y="677.8" width="3.9" height="9.8" transform="translate(-185.6 1134.2) rotate(-77.5)"/>
  <path class="st3" d="M647.1,598.9l1.5,6.1h-2.3c-2.4-1.6-2.7-3.3-2.3-6.1h3.1Z"/>
  <path class="st3" d="M587.5,415.7v4.6c-1.9,2-9.4-6.2,0-4.6Z"/>
  <path class="st2" d="M667,536.3c-47.1-1.7-99.2-16.2-140.6-38.9-14.2-7.8-18.8-7.2-12.1-25.3,17.1,3.6,31.6,14,47.3,20.6,21.1,8.8,46.2,15.3,68.7,19.9,6.9,1.4,30.7,3.5,34.1,5.6,4.9,3,1.7,12.8,2.5,18.1h0ZM544.5,492.8c0-2.4-2-4.4-4.4-4.4s-4.4,2-4.4,4.4,2,4.4,4.4,4.4,4.4-2,4.4-4.4ZM572.3,508.8c.7-8.1-6.8-8.1-6.1,0h6.1ZM612,512.5l-5.5,5.5,5.5,5.5,5.5-5.5-5.5-5.5Z"/>
  <path class="st2" d="M682.2,518c8.2,1.8,29.4-5,35.7-2.9,3.6,1.2,3.1,9.6,2.2,12.5-2.4,7.8-26.8,6.5-33.9,8.6l-2.2-2.4-1.8-15.8h0Z"/>
  <path class="st2" d="M674.5,515c1.3.8,6.2,26.3.9,28.9-3.2,0-5.7-25.2-5.3-29h4.5-.1Z"/>
  <circle class="st0" cx="540.1" cy="492.8" r="4.4"/>
  <rect class="st0" x="608.1" y="514.2" width="7.7" height="7.7" transform="translate(-187.1 584.4) rotate(-45)"/>
  <path class="st0" d="M572.3,508.8h-6.1c-.7-8.1,6.8-8.1,6.1,0Z"/>
  <path class="st0" d="M483.7,1088.1c2,3.1-1,6.2-2.9,8.1-3.7,3.7-38.5,22.9-43.5,23.7-13.9,2.2-50.6-1.7-63.3-8.3-4.3-2.2-6.9-4.5-3-9.1,3.7-4.4,27.5-19.7,34-24,4.4-2.9,17.8-13,21.9-13.4,6.9,1.6,55.3,20.5,56.9,23.1h-.1ZM467.1,1091l-38.7-14.9-42.2,27.9c0,2.4,28.9,6.6,32.8,6.8,15.6,1,27.3-5.4,40.5-12.9,1.4-.8,9.9-4.6,7.6-6.9h0Z"/>
  <path class="st3" d="M329.5,676.8c6.2,4.5,11.7,10.4,17.6,15.2,6.6,5.4,17.1,11.4,22.9,16.8,3.9,3.7,16.3,23.1,21.1,22.7l100.9-80.6,55.9,77.2,27-17.6,2.8,1.3c2.1,2.4,2.3,9.2,7.5,7.6l13-18.8,3.2-1,13,21.4.7-8.4c.4-1.6,2.1-1,3.1,0,3.1,3,10.4,23.8,15.5,30.3,5.3,6.7,28.7,17.5,34.9,11,7.3-7.7-2.4-18.6-.8-26.7,6.9,7.1,10.7,16.2,6.9,25.9,9.7,2.9,20,4.9,29.9,1.6,12.1-4,6.3-9,8.3-18.4l8.4,6.1c28.1-13.7,1.2-44.2-8.4-61.9,0-5.6,33-28.7,39.2-32.6l2,.5c14.4,14.1,27.2,30,41.2,44.4,4.3,4.4,20.6,22.2,25.3,22.1s24.8-25.4,28.8-30.7c11.5-15.1,20.7-31.7,31.4-47.2,1.8,18,5.3,36.1,6.2,54.1,9.1,187-96.6,391.6-310.6,367.1-178.9-20.5-254.8-223.3-246.8-381.6v.2ZM867,730.3c-2.3-.4-3.5.5-4.3,2.6-2.8,7.4-2.2,25.5-3.6,34.6-2.2,15.6-6.2,31-7.4,46.8,4,.7,2.7-.8,3.7-3,2.9-6.3,5-15.7,6.5-22.6,1.9-8.4,9.3-54.4,5-58.3h0ZM787.6,806.6c8.5-.4,2.8-13.9,1.1-18.7s-12.8-29.1-17.9-24c4.1,14.5,15.1,27,16.8,42.7h0ZM375.3,834.1c1.8-.3,2.7-1.7,2.7-3.5,0-5.4-6.7-21.3-8.4-28.3-2.4-10-3.6-24.1-6.6-33.1-.8-2.5-1.2-4.4-4.5-3.9-.3,23.9,6.6,47.5,16.8,68.7h0ZM833.4,765.4c-1,17.9-8,35-11.1,52.3-.3,1.4-1.8,5.9,1.2,5.7,3.7-.2,11.7-27.1,12.5-31.7.4-2.3,5.2-32.1-2.6-26.3h0ZM830.4,852.4c-5.8-1.3-11.9,16.9-10.7,18.3,6.3,1.1,12.6-16.1,10.7-18.3ZM456.2,936.4c.9-.8-9.7-20.1-10.9-21.9-1.5-2.1-2.8-4.6-5.8-4.1-2.5,2.9,11.7,30.7,16.8,25.9h-.1ZM579.9,934.9c.9-.8-7.9-21.1-13.7-18.3-1.7,1.7,7.1,21.2,13.7,18.3ZM732.6,924.2c-2-2.2-20.1,13.2-18.3,18.3,1.7,1.8,22-11.6,18.3-18.3ZM769.3,928.8c-2.7-.2-4.7-.2-7,1.4-.9.7-14.3,15.8-15.1,17-1.5,2.4-2.8,4.5-2.4,7.5,6.1.9,27-23.6,24.4-25.9h0ZM792.2,936.4c-1.5-1.7-7.2,4.8-8.4,6.1-9.2,9.7-21.1,23.9-29.8,34.4-1.4,1.7-3.7,2.5-3,5.3,3.4,3.1,20.7-13.5,23.7-16.8,3.1-3.4,20.3-25.9,17.5-29ZM497.4,994.4c.8-3.8-.5-3.8-2.5-5.9-6.6-6.7-18.8-13.7-26.5-20.8-4.5-4.1-16.3-19.1-19-20.7-2.4-1.4-4.1-1.8-6.9-1.4-3.3,2.9,23,28.9,25.9,31.3,3,2.5,27.1,19.6,29,17.5h0ZM456.2,982.2c-4.2,4.2,15.7,17,19.1,18.3,1.6.6,4.7,2.4,5.3-.8.4-1.9-15.6-13.8-18.3-15.3-2-1.2-3-3.1-6.2-2.2h.1ZM611.2,1008.2c-8-1.2-18.4.9-26.7,0v4.6c5.6,1,27.3,3.3,30.5,0s-2.7-4.4-3.8-4.6ZM624.2,1028c-20.2,2.6-40.1-4-59.5-5.4-10.2-.7-5.3,3.8,1.5,6.2,16.8,5.8,40.7,6.5,58,3.8v-4.5h0Z"/>
  <path class="st1" d="M857.8,650.8c1.8,1.9-16,25.2-18.4,28.2-2.1,2.5-12.5,16.5-15.2,14.6-2.7-14.8-10.6-27.4-16.3-41-1.3-3.1-1.1-7.3-2.3-9.9s-6.9-2.9-5.6-7.7c.9-3.4,13.4-12.8,17.2-14.7,3.9.8,20.5,31.4,26.9,34.3,6.5,3,12-5.6,13.7-3.8h0Z"/>
  <path class="st2" d="M867,730.3c4.3,3.9-3.2,49.9-5,58.3-1.5,6.9-3.5,16.3-6.5,22.6-1.1,2.3.2,3.8-3.7,3,1.2-15.8,5.2-31.2,7.4-46.8,1.3-9.1.7-27.2,3.6-34.6.8-2.1,2-3,4.3-2.6h0Z"/>
  <path class="st2" d="M497.4,994.4c-1.9,2.1-26-15-29-17.5-2.9-2.4-29.2-28.4-25.9-31.3,2.8-.4,4.5,0,6.9,1.4,2.7,1.6,14.5,16.6,19,20.7,7.7,7.1,19.9,14.1,26.5,20.8,2,2,3.3,2,2.5,5.9h0Z"/>
  <path class="st2" d="M624.2,1028v4.5c-17.3,2.7-41.3,2.1-58.1-3.8-6.8-2.4-11.7-6.9-1.5-6.2,19.5,1.4,39.3,8,59.5,5.4h0Z"/>
  <path class="st2" d="M375.3,834.1c-10.3-21.2-17.1-44.8-16.8-68.7,3.3-.6,3.7,1.4,4.5,3.9,3,9,4.2,23.1,6.6,33.1,1.7,7,8.4,22.9,8.4,28.3s-.9,3.2-2.7,3.5h0Z"/>
  <path class="st2" d="M792.2,936.4c2.8,3.1-14.4,25.6-17.5,29-2.9,3.2-20.3,19.8-23.7,16.8-.7-2.9,1.6-3.6,3-5.3,8.7-10.5,20.5-24.7,29.8-34.4,1.2-1.3,6.9-7.8,8.4-6.1Z"/>
  <path class="st2" d="M833.4,765.4c7.8-5.8,3,24,2.6,26.3-.9,4.7-8.8,31.5-12.5,31.7-3,.2-1.4-4.3-1.2-5.7,3.1-17.3,10.2-34.3,11.1-52.3h0Z"/>
  <path class="st2" d="M787.6,806.6c-1.7-15.7-12.7-28.2-16.8-42.7,5.1-5.1,16.8,20.6,17.9,24s7.3,18.3-1.1,18.7h0Z"/>
  <path class="st2" d="M769.3,928.8c2.5,2.3-18.3,26.8-24.4,25.9-.4-3,.8-5.2,2.4-7.5.8-1.2,14.2-16.3,15.1-17,2.3-1.6,4.3-1.6,7-1.4h0Z"/>
  <path class="st2" d="M611.2,1008.2c1.1.2,5.8,2.5,3.8,4.6-3.2,3.4-25,1-30.5,0v-4.6c8.3.9,18.7-1.2,26.7,0Z"/>
  <path class="st2" d="M456.2,982.2c3.1-.8,4.2,1,6.2,2.2,2.6,1.5,18.6,13.4,18.3,15.3-.6,3.2-3.7,1.4-5.3.8-3.4-1.3-23.3-14.1-19.1-18.3h-.1Z"/>
  <path class="st2" d="M456.2,936.4c-5.1,4.8-19.3-23-16.8-25.9,3.1-.5,4.4,2,5.8,4.1,1.3,1.8,11.8,21,10.9,21.9h.1Z"/>
  <path class="st2" d="M732.6,924.2c3.7,6.7-16.7,20.1-18.3,18.3-1.8-5.1,16.3-20.5,18.3-18.3Z"/>
  <path class="st2" d="M579.9,934.9c-6.6,2.8-15.4-16.7-13.7-18.3,5.9-2.8,14.6,17.5,13.7,18.3Z"/>
  <path class="st2" d="M830.4,852.4c2,2.2-4.4,19.4-10.7,18.3-1.3-1.4,4.8-19.6,10.7-18.3Z"/>
  <path class="st0" d="M103.7,584.8c9.7-10.7,25.4-25.1,36.6-34.4,25.5-21.1,56.5-39.5,88.6-48.1,2.2,5.6-.5,11.5-1.9,17.1-5.4,21.2-15,41.5-19.6,63.1,2.4,9.9,27.8,45.7,25.9,53.1-4.3,10.2-32,31.7-34.3,39.2-2.4,7.8,10.4,22.3,11.3,31.1l-18.9,24c5.4,9.8,35.4,33.7,37.3,42.3,2.2,9.7-12.2,51.1-10.3,53.7l74.8,42c6.4,8.5-2.8,27.1,0,37.5,7.5,1.9,45.9,3.6,48.6,7.9l-8.3,54c5.4,7,10.6,14.4,16.3,21.3,10.7,13.1,23.4,29.3,39,35.9,3.6,8.5-7.1,10.3-13.1,12.3-102,33.3-255-4.8-314.3-98.8-72.1-114.2-44.9-256.2,42.5-353.2h-.2ZM216.7,519.2c-77.2,27.7-140.1,109.3-167.2,184.8-34.7,96.7-12.7,218.7,73.5,280.6,56.8,40.8,147.6,59,216.4,48.9,9.6-1.4,18.9-4.4,28.5-5.9,2-1.9-13.1-8-14.8-8.9-26.1-14.8-51.4-31.5-74.6-50.7-4.6-31.4-2.3-62.3,5.2-93l-77.5-41.7,11.1-56.3-57-63.6c-2.9-9.4,6.5-20.2,12-27.1,14.2-18.2,33.8-34.3,48.6-52.3-2-13.8-25.3-41-25.9-53.2-.6-13.6,18.3-46.8,21.5-61.8l.2.2ZM190,682.6l-20.6,25.2,16,14.6,17.1-17.6c-2.8-3.4-9-22.9-12.5-22.1h0ZM288.5,913.1v49.6l59.6,39.7-24.4-33.7,7-49.6-42.1-6h-.1Z"/>
  <path class="st3" d="M216.7,519.2c-3.2,15-22.1,48.2-21.5,61.8.5,12.2,23.9,39.3,25.9,53.2-14.8,18-34.4,34.1-48.6,52.3-5.4,6.9-14.8,17.8-12,27.1l57,63.6-11.1,56.3,77.5,41.7c-7.5,30.7-9.9,61.6-5.2,93,23.1,19.2,48.4,35.9,74.6,50.7,1.6.9,16.7,7,14.8,8.9-9.5,1.5-18.9,4.5-28.5,5.9-68.7,10.1-159.6-8.1-216.4-48.9-86.3-61.9-108.2-183.9-73.5-280.6,27.1-75.5,90-157.1,167.2-184.8l-.2-.2ZM128.8,611.6c-2.2-2.4-6.5,2.5-8.3,4.4-15.9,16.5-28.3,49.7-23.5,42.2,5.7-8.9,11.9-17.6,18.3-25.9,4.4-5.6,9.6-9.5,12.1-13.7,1.4-2.4,1.8-4.1,1.4-6.9h0ZM209.2,975.8c1.9-3.4-23.1-14.2-24.4-11.5-.9,6.7,23.1,13.9,24.4,11.5ZM167.9,950.7c2.7-2.5-12.8-12.8-15.3-10.7-1,5.3,13,12.8,15.3,10.7ZM134.2,946.7c.6-2.9-1.5-3.7-3.2-5.2-4.3-3.9-11.1-11-15.1-14-2.1-1.5-3.1-2.9-6.2-2.2-1,6.9,20.4,24.9,24.4,21.4h0ZM193.7,991c3.7-3.1-27-17.5-29.7-16.1-.6,6.2,27.8,17.6,29.7,16.1ZM268.6,995.6l-29-4.6c-4.9,4.2,29.9,15.5,29,4.6ZM296.1,1012.4l-16.8-1.5c.9,7.8,11.2,6,16.8,6.1v-4.6Z"/>
  <polygon class="st1" points="288.5 913.1 330.6 919.2 323.6 968.8 348 1002.5 288.5 962.8 288.5 913.1"/>
  <path class="st1" d="M190,682.6c3.5-.8,9.8,18.8,12.5,22.1l-17.1,17.6-16-14.6,20.6-25.2h0Z"/>
  <path class="st2" d="M128.8,611.6c.4,2.8,0,4.5-1.4,6.9-2.5,4.3-7.7,8.1-12.1,13.7-6.5,8.3-12.7,17.1-18.3,25.9-4.8,7.5,7.6-25.7,23.5-42.2,1.8-1.9,6.1-6.9,8.3-4.4h0Z"/>
  <path class="st2" d="M134.2,946.7c-4,3.6-25.4-14.4-24.4-21.4,3.1-.7,4.1.7,6.2,2.2,4,2.9,10.7,10,15.1,14,1.7,1.5,3.8,2.3,3.2,5.2h0Z"/>
  <path class="st2" d="M268.6,995.6c.9,10.9-33.9-.4-29-4.6l29,4.6Z"/>
  <path class="st2" d="M209.2,975.8c-1.3,2.3-25.3-4.8-24.4-11.5,1.3-2.6,26.3,8.1,24.4,11.5Z"/>
  <path class="st2" d="M193.7,991c-1.8,1.5-30.3-9.9-29.7-16.1,2.6-1.5,33.3,13,29.7,16.1Z"/>
  <path class="st2" d="M296.1,1012.4v4.6c-5.6,0-15.9,1.7-16.8-6.1l16.8,1.5Z"/>
  <path class="st2" d="M167.9,950.7c-2.3,2.1-16.2-5.4-15.3-10.7,2.4-2.1,18,8.2,15.3,10.7Z"/>
  <path class="st0" d="M976.9,931.9c3.7,3.8,18.1,23.3,20.9,24.1,7.4,2.5,42.1-8.1,45.6-2.9,3.7,20.9,1.8,42.2,2.1,63.3.7,2.5,23,5.5,23.1,12.4,0,5.2-25.9,23.4-31.3,26.8-54.4,34.2-104.8,55.7-170.9,45.6-23.4-3.6-26.6-13-31-34.6-.8-3.8,0-7.8-.7-11.5s-29-32.6-33.7-35-6-2.4-8.7-2.8l3.7-7.8,65.1-13.6c-3.5-7.1-13.1-13.2-12.2-22,.3-2.7,14.8-26.6,16.8-27.6,8.6-4.2,30.2,6.8,40.1,5l54.1-32.9c3.4-.3,14.4,10.4,17.3,13.4h-.3ZM1035,962.5c-1.5-1.5-33.5,6.4-41.3,3.9-8.5-2.7-28.9-35.3-32.7-35.6l-55.3,32.9-36.9-7.1-10.6,20.1c1.3,6,21.5,21.4,17.4,27.1l-58.9,12.9c7.7,4.8,22.6,28.3,29.8,29.7,7.7,1.5,24.6-2.7,33.5-3.1,11.2-.4,32.5-1.5,42.7.2,13.3,2.1,27.7,20.1,41.3,21.3,10.2.9,42.4-6.3,51.6-11,11.9-6,22.5-16.8,34.6-22.6l-16.6-10.1,1.3-58.6h0ZM983,1070.9c-8.9-1-17.4,3-26.4,1.2-8.2-1.7-23.9-17.4-33.1-20.3s-27.5-2.6-37.6-2.3c-9.8.4-27.3,1.4-36.6,3.1-1.2.2-2.4.3-3.2,1.4-2.7,3.8,3.9,26.8,7.8,30.6,2.6,2.5,12.9,4.2,16.8,4.6,27.2,2.6,56.7,2.7,83.1-3.9l29.1-14.4h.1Z"/>
  <path class="st0" d="M1059.3,988.1c-.8-2.5-.9-6.4,1.2-8.1s24.7-8.8,30.1-11.2c8.3-3.6,15.7-8.4,23.9-12.1l62.2,32.4c5.2,9.1-3.6,8.6-10.3,9.8-15.5,2.9-57.3,8.1-71.6,6.4-11.3-1.4-25.1-12.4-35.5-17.1h0ZM1153.7,990l-37.5-19.8-38.8,15.3,22.2,10.8,54.2-6.2h0Z"/>
  <path class="st3" d="M1035,962.5l-1.3,58.6,16.6,10.1c-12.1,5.8-22.8,16.6-34.6,22.6-9.2,4.7-41.4,11.9-51.6,11-13.7-1.2-28.1-19.2-41.3-21.3-10.3-1.6-31.5-.6-42.7-.2-8.9.3-25.8,4.6-33.5,3.1-7.2-1.4-22.1-25-29.8-29.7l58.9-12.9c4.2-5.6-16.1-21.1-17.4-27.1l10.6-20.1,36.9,7.1,55.3-32.9c3.8.3,24.3,32.9,32.7,35.6,7.8,2.5,39.8-5.4,41.3-3.9h0Z"/>
  <path class="st1" d="M983,1070.9l-29.1,14.4c-26.5,6.6-56,6.5-83.1,3.9-3.9-.4-14.2-2.1-16.8-4.6-3.9-3.8-10.5-26.8-7.8-30.6.8-1.1,1.9-1.2,3.2-1.4,9.3-1.7,26.8-2.8,36.6-3.1,10.1-.4,28.3-.6,37.6,2.3s24.9,18.6,33.1,20.3c9,1.9,17.5-2.2,26.4-1.2h-.1Z"/>
  <polygon class="st3" points="1153.7 990 1099.5 996.2 1077.3 985.4 1116.1 970.1 1153.7 990"/>
</svg>